<svg width="20" height="20" viewBox="0 0 20 20" fill="none" xmlns="http://www.w3.org/2000/svg">
<path d="M17.7589 0H2.24107C1.01339 0 0 1.01339 0 2.24107V17.7589C0 18.9866 1.01339 20 2.24107 20H17.7589C18.9866 20 20 18.9866 20 17.7589V2.24107C20 1.01339 18.9866 0 17.7589 0ZM15.7321 12.692C15.7321 12.8795 15.5714 12.9598 15.3839 13.0402C14.6384 13.3616 13.8393 13.6518 12.9821 13.6518C11.7812 13.6518 11.2232 12.9063 9.78125 12.9063C8.74107 12.9063 7.64732 13.2812 6.76786 13.6786C6.71429 13.7054 6.66071 13.7054 6.60714 13.7321V15.7589C6.60714 15.8393 6.60714 15.9196 6.58036 15.9732V16.0268C6.47321 16.4018 6.125 16.6652 5.72768 16.6652C5.22321 16.6652 4.82143 16.2634 4.82143 15.7589V6C4.47321 5.73214 4.23661 5.30804 4.23661 4.82589C4.23661 4 4.90179 3.33036 5.73214 3.33036C6.55804 3.33036 7.22768 3.99554 7.22768 4.82589C7.22768 5.30804 7.01339 5.73214 6.64286 6V6.82589C6.72321 6.79911 6.80357 6.77232 6.88393 6.71875C7.70982 6.37054 8.69643 6.08036 9.62946 6.08036C10.6429 6.08036 11.442 6.34821 12.3482 6.69196C12.5357 6.77232 12.7232 6.79911 12.933 6.79911C13.9464 6.79911 15.067 6.08036 15.3348 6.08036C15.5491 6.08036 15.7366 6.24107 15.7366 6.42857V12.692H15.7321Z" fill="rgba(255,255,255,0.56)"/>
</svg>
